<svg width="24" height="24" viewBox="0 0 24 24" fill="none" xmlns="http://www.w3.org/2000/svg">
<path d="M17.9517 11.7767H18.205C19.1983 11.7767 20.0017 12.58 20.0017 13.5733" stroke="#1A1D21" stroke-linecap="round" stroke-linejoin="round"/>
<path d="M16.405 18.2067H18.2017C19.195 18.2067 19.9984 17.4033 19.9984 16.41" stroke="#1A1D21" stroke-linecap="round" stroke-linejoin="round"/>
<path d="M7.5918 18.2067H9.24846" stroke="#1A1D21" stroke-linecap="round" stroke-linejoin="round"/>
<path d="M19.9984 16.41V13.5733" stroke="#1A1D21" stroke-linecap="round" stroke-linejoin="round"/>
<path d="M3.99841 16.41V13.5733" stroke="#1A1D21" stroke-linecap="round" stroke-linejoin="round"/>
<path d="M16.405 18.2067H14.7517" stroke="#1A1D21" stroke-linecap="round" stroke-linejoin="round"/>
<path d="M3.99841 13.5733C3.99841 12.58 4.80175 11.7767 5.79508 11.7767H6.04841" stroke="#1A1D21" stroke-linecap="round" stroke-linejoin="round"/>
<path d="M3.99841 16.41C3.99841 17.4033 4.80175 18.2067 5.79508 18.2067H7.59175" stroke="#1A1D21" stroke-linecap="round" stroke-linejoin="round"/>
<path d="M10.1784 6.52667H9.09505C8.81505 6.52667 8.54839 6.59334 8.30505 6.70334" stroke="#1A1D21" stroke-linecap="round" stroke-linejoin="round"/>
<path d="M10.1785 6.52667H12.9451" stroke="#1A1D21" stroke-linecap="round" stroke-linejoin="round"/>
<path d="M15.5518 6.64334C15.3485 6.57001 15.1318 6.53001 14.9085 6.53001H12.9485" stroke="#1A1D21" stroke-linecap="round" stroke-linejoin="round"/>
<path d="M17.9517 11.7767L17.7484 11.12" stroke="#1A1D21" stroke-linecap="round" stroke-linejoin="round"/>
<path d="M7.63171 7.20999C7.81505 6.99332 8.04171 6.81999 8.30171 6.70333" stroke="#1A1D21" stroke-linecap="round" stroke-linejoin="round"/>
<path d="M7.6317 7.21C7.46836 7.40333 7.33503 7.62667 7.25503 7.88L6.90503 9.00667" stroke="#1A1D21" stroke-linecap="round" stroke-linejoin="round"/>
<path d="M17.7483 11.12L17.3083 9.70667" stroke="#1A1D21" stroke-linecap="round" stroke-linejoin="round"/>
<path d="M6.90834 9.00667L6.04834 11.7767" stroke="#1A1D21" stroke-linecap="round" stroke-linejoin="round"/>
<path d="M17.9517 11.7767H6.04834" stroke="#1A1D21" stroke-linecap="round" stroke-linejoin="round"/>
<path d="M4.19507 10.26H5.3484L6.2184 11.1333" stroke="#1A1D21" stroke-linecap="round" stroke-linejoin="round"/>
<path d="M17.7484 11.12L17.7351 11.1333" stroke="#1A1D21" stroke-linecap="round" stroke-linejoin="round"/>
<path d="M17.7484 11.12L18.6051 10.26H19.7584" stroke="#1A1D21" stroke-linecap="round" stroke-linejoin="round"/>
<path d="M3.99841 13.5733H6.49841L7.29841 14.3733" stroke="#1A1D21" stroke-linecap="round" stroke-linejoin="round"/>
<path d="M16.7017 14.3733L17.5017 13.5733H19.9983" stroke="#1A1D21" stroke-linecap="round" stroke-linejoin="round"/>
<path d="M3.99841 16.41V19.37C3.99841 19.72 4.28175 20 4.62841 20H6.95841C7.30841 20 7.58841 19.7167 7.58841 19.37V18.2067" stroke="#1A1D21" stroke-linecap="round" stroke-linejoin="round"/>
<path d="M16.405 18.2067V19.37C16.405 19.72 16.6884 20 17.035 20H19.365C19.715 20 19.995 19.7167 19.995 19.37V16.41" stroke="#1A1D21" stroke-linecap="round" stroke-linejoin="round"/>
<path d="M14.7517 18.2067V16.7467C14.7517 16.05 14.1851 15.4833 13.4884 15.4833H10.5117C9.81508 15.4833 9.24841 16.05 9.24841 16.7467V18.2067" stroke="#1A1D21" stroke-linecap="round" stroke-linejoin="round"/>
<path d="M9.24841 18.2067H14.7517" stroke="#1A1D21" stroke-linecap="round" stroke-linejoin="round"/>
<path d="M7.63174 7.20999C7.39174 6.94665 7.2384 6.59665 7.2384 6.20999C7.2384 5.78665 7.4184 5.40665 7.70174 5.13665" stroke="#1A1D21" stroke-linecap="round" stroke-linejoin="round"/>
<path d="M10.1784 6.52666C10.2017 6.42332 10.2151 6.31999 10.2151 6.20999C10.2151 5.38999 9.54841 4.72332 8.72841 4.72332C8.33174 4.72332 7.97174 4.87999 7.70508 5.13666" stroke="#1A1D21" stroke-linecap="round" stroke-linejoin="round"/>
<path d="M17.3083 9.70666C18.395 9.67999 19.2684 8.79332 19.2684 7.69999C19.2684 6.60666 18.4683 5.79332 17.4483 5.69999" stroke="#1A1D21" stroke-linecap="round" stroke-linejoin="round"/>
<path d="M15.5517 6.64333C15.3617 6.94999 15.2484 7.30999 15.2484 7.69999C15.2484 7.98333 15.3084 8.25333 15.4117 8.49666" stroke="#1A1D21" stroke-linecap="round" stroke-linejoin="round"/>
<path d="M15.5518 6.64333C15.9051 6.07 16.5384 5.69 17.2584 5.69C17.3218 5.69 17.3851 5.69333 17.4484 5.7" stroke="#1A1D21" stroke-linecap="round" stroke-linejoin="round"/>
<path d="M17.3084 9.70666C17.3084 9.70666 17.275 9.70666 17.2584 9.70666C16.4317 9.70666 15.7217 9.20666 15.415 8.49332" stroke="#1A1D21" stroke-linecap="round" stroke-linejoin="round"/>
<path d="M12.9217 8.18333C12.3217 8.18333 11.8384 8.66999 11.8384 9.26666C11.8384 9.86333 12.325 10.35 12.9217 10.35C13.5184 10.35 14.005 9.86333 14.005 9.26666C14.005 8.66999 13.5184 8.18333 12.9217 8.18333Z" stroke="#1A1D21" stroke-linecap="round" stroke-linejoin="round"/>
<path d="M12.9451 6.52666C12.9318 6.42333 12.9218 6.31666 12.9218 6.21C12.9218 4.94333 13.9484 4 15.2151 4C16.3051 4 17.2151 4.67666 17.4484 5.69666" stroke="#1A1D21" stroke-linecap="round" stroke-linejoin="round"/>
</svg>
