<svg width="17" height="17" viewBox="0 0 17 17" fill="none" xmlns="http://www.w3.org/2000/svg">
<path d="M16.4678 12.4791V14.8877C16.4687 15.1113 16.4229 15.3327 16.3333 15.5375C16.2438 15.7424 16.1124 15.9263 15.9476 16.0775C15.7828 16.2286 15.5883 16.3437 15.3765 16.4154C15.1647 16.487 14.9402 16.5136 14.7175 16.4935C12.2469 16.225 9.87374 15.3808 7.78865 14.0286C5.84875 12.7959 4.20406 11.1512 2.97136 9.21135C1.61448 7.11679 0.770057 4.73206 0.506517 2.25036C0.486453 2.02834 0.512839 1.80457 0.583995 1.5933C0.655151 1.38203 0.769517 1.1879 0.919813 1.02325C1.07011 0.858607 1.25304 0.72706 1.45696 0.636987C1.66088 0.546914 1.88132 0.500288 2.10425 0.500078H4.5129C4.90254 0.496243 5.28028 0.634222 5.57572 0.888297C5.87116 1.14237 6.06413 1.49521 6.11866 1.88103C6.22032 2.65185 6.40886 3.4087 6.68068 4.13713C6.7887 4.4245 6.81208 4.73682 6.74804 5.03707C6.68401 5.33732 6.53525 5.61292 6.31938 5.83121L5.29972 6.85087C6.44267 8.86092 8.10696 10.5252 10.117 11.6682L11.1367 10.6485C11.355 10.4326 11.6306 10.2839 11.9308 10.2198C12.2311 10.1558 12.5434 10.1792 12.8308 10.2872C13.5592 10.559 14.316 10.7476 15.0869 10.8492C15.4769 10.9042 15.833 11.1007 16.0877 11.4012C16.3423 11.7017 16.4776 12.0853 16.4678 12.4791Z" stroke="#EF233C" stroke-linecap="round" stroke-linejoin="round"/>
</svg>
