<svg width="24" height="24" viewBox="0 0 24 24" fill="none" xmlns="http://www.w3.org/2000/svg">
<path d="M9.74369 10.5715C8.49722 11.8179 8.49722 13.841 9.74369 15.0874C10.9902 16.3339 13.0132 16.3339 14.2597 15.0874C15.5061 13.841 15.5061 11.8179 14.2597 10.5715L12 8.31183L9.74036 10.5715H9.74369Z" stroke="#1A1D21" stroke-linecap="round" stroke-linejoin="round"/>
<path d="M10.9301 11.758C10.3402 12.3479 10.3402 13.3077 10.9301 13.8976" stroke="#1A1D21" stroke-linecap="round" stroke-linejoin="round"/>
<path d="M17.6557 6.34214C14.5328 3.21929 9.46696 3.21929 6.34412 6.34214" stroke="#1A1D21" stroke-linecap="round" stroke-linejoin="round"/>
<path d="M6.34412 17.657C9.46696 20.7799 14.5328 20.7799 17.6557 17.657" stroke="#1A1D21" stroke-linecap="round" stroke-linejoin="round"/>
<path d="M12 4.00251C7.584 4.00251 4.00122 7.58528 4.00122 12.0013" stroke="#1A1D21" stroke-linecap="round" stroke-linejoin="round"/>
<path d="M12 20C16.416 20 19.9988 16.4172 19.9988 12.0013" stroke="#1A1D21" stroke-linecap="round" stroke-linejoin="round"/>
<path d="M15.3162 6.4088H17.7225V4.00251" stroke="#1A1D21" stroke-linecap="round" stroke-linejoin="round"/>
<path d="M8.68708 17.657H6.34412V20" stroke="#1A1D21" stroke-linecap="round" stroke-linejoin="round"/>
</svg>
