<svg width="25" height="25" viewBox="0 0 25 25" fill="none" xmlns="http://www.w3.org/2000/svg">
<path d="M8.33329 22.9166C8.90859 22.9166 9.37496 22.4503 9.37496 21.875C9.37496 21.2997 8.90859 20.8333 8.33329 20.8333C7.758 20.8333 7.29163 21.2997 7.29163 21.875C7.29163 22.4503 7.758 22.9166 8.33329 22.9166Z" stroke="white" stroke-width="1.5" stroke-linecap="round" stroke-linejoin="round"/>
<path d="M19.7917 22.9166C20.367 22.9166 20.8333 22.4503 20.8333 21.875C20.8333 21.2997 20.367 20.8333 19.7917 20.8333C19.2164 20.8333 18.75 21.2997 18.75 21.875C18.75 22.4503 19.2164 22.9166 19.7917 22.9166Z" stroke="white" stroke-width="1.5" stroke-linecap="round" stroke-linejoin="round"/>
<path d="M2.13538 2.13544H4.21871L6.98954 15.0729C7.09119 15.5467 7.35482 15.9703 7.73508 16.2707C8.11533 16.5711 8.5884 16.7295 9.07288 16.7188H19.2604C19.7345 16.718 20.1942 16.5555 20.5635 16.2582C20.9328 15.9608 21.1897 15.5464 21.2916 15.0834L23.0104 7.34377H5.33329" stroke="white" stroke-width="1.5" stroke-linecap="round" stroke-linejoin="round"/>
</svg>
