<svg xmlns="http://www.w3.org/2000/svg" width="650" height="200" xml:space="preserve"><path fill="#178EC9" d="M363.072 73.498a2.797 2.797 0 0 0-1.352.307l-17.011 7.52c-1.543.68-1.886 1.467-1.791 3.148.345 6.065-.024 12.93-1.048 19.499-1.557 9.985-4.686 23.14-12.2 32.396-2.604-2.352-4.452-5.184-4.984-8.918-.48-3.372.084-7.251 1.268-11.716l7.435-28.113c.179-.777-.414-1.71-1.358-1.706-1.671.005-13.563 0-14.819 0-.833 0-1.661.658-1.882 1.488a36720.78 36720.78 0 0 1-12.795 48.396c-6.841-3.29-8.394-9.094-6.207-17.444l8.129-30.69c.231-.882-.463-1.755-1.354-1.75h-14.427c-.815 0-2.08.812-2.315 1.706-2.954 11.15-5.941 21.993-8.79 33.143-1.225 4.788-2.281 9.969-1.135 14.425.929 3.623 3.291 6.588 6.294 9.006 3.936 3.178 7.505 5.219 12.415 7.085 1.439.5 2.05.309 2.361.089l14.994-10.404a588.876 588.876 0 0 0 11.762 10.273c.585.554 1.104.356 1.617.13 8.893-4.202 15.454-10.914 21.557-18.713 4.868-6.225 8.73-13.113 11.582-20.155 3.042-7.506 4.909-16.27 5.684-23.565.489-4.637.744-9.264.439-13.73-.044-.661-.826-1.663-2.044-1.704l-.025-.003zM204.118 85.913c-1.049 0-2.126.873-2.403 1.925l-16.091 60.683c-.292 1.05.292 1.923 1.343 1.923h29.773c1.051 0 2.124-.872 2.405-1.923l2.535-9.618c.281-1.052-.351-1.882-1.399-1.882h-13.509l13.027-49.184c.282-1.051-.347-1.924-1.398-1.924h-14.296.013zm41.358 0c-1.051 0-2.126.873-2.406 1.925l-16.141 60.683c-.278 1.05.348 1.923 1.398 1.923h30.954c1.048 0 2.124-.872 2.405-1.923l2.579-9.618c.277-1.052-.348-1.882-1.401-1.882h-14.776l3.409-12.897h12.68c1.051 0 2.127-.827 2.405-1.878l2.446-9.356c.281-1.052-.303-1.924-1.354-1.924h-12.68l3.106-11.628h14.776c1.053 0 2.126-.83 2.405-1.881l2.535-9.62c.278-1.05-.348-1.923-1.399-1.923h-30.953.012zm131.027 0c-1.052 0-2.124.873-2.406 1.925l-16.145 60.727c-.278 1.049.352 1.88 1.397 1.88h14.296c1.054 0 2.127-.831 2.406-1.88l16.13-60.727c.281-1.052-.348-1.925-1.396-1.925h-14.297.015zm45.641 0c-.886 0-1.798.62-2.229 1.443l-35.805 60.596c-.591.997-.343 2.08.567 2.404.176.063.376.089.567.089h13.684c.936 0 1.922-.684 2.317-1.574l6.428-11.936h15.478v12.11c0 .848.645 1.399 1.486 1.399h14.993c1.052 0 2.126-.874 2.405-1.925.07-.26.081-.475.043-.697l-3.579-60.597c-.043-.804-.674-1.313-1.485-1.313h-14.908.038zm37.207 0c-1.062 0-2.142.873-2.419 1.925l-2.579 9.619c-.279 1.05.348 1.88 1.398 1.88h9.048l-13.029 49.23c-.293 1.046.295 1.878 1.343 1.878h14.341c1.05 0 2.13-.832 2.403-1.881l13.032-49.23h9.05c1.051 0 2.126-.83 2.403-1.88l2.579-9.618c.276-1.051-.351-1.924-1.4-1.924h-36.199.029zm58.542 0c-.889 0-1.802.62-2.231 1.443l-35.813 60.597c-.588.996-.343 2.08.567 2.406.18.062.375.086.567.086h13.684c.936 0 1.879-.683 2.276-1.572l6.471-11.935h15.429l.042 12.108c.004.85.647 1.398 1.489 1.398h14.994c1.366 0 2.627-1.411 2.448-2.622l-3.539-60.595c-.044-.806-.686-1.312-1.484-1.312h-14.907l.007-.002zm45.776 0c-1.054 0-2.131.873-2.408 1.925l-16.131 60.727c-.28 1.049.346 1.88 1.398 1.88h12.024c1.051 0 2.126-.831 2.405-1.88l8.566-32.396 10.93 33.36c.197.6.751.916 1.399.916h10.929c1.052 0 2.126-.832 2.402-1.881l16.118-60.725c.277-1.053-.348-1.924-1.396-1.924h-12.11c-1.051 0-2.129.872-2.405 1.924l-7.869 29.598-9.969-30.604c-.197-.601-.752-.918-1.398-.918H563.65l.019-.002zm-140.436 22.386-.044 16.612h-9.007l9.051-16.612zm95.746 0-.044 16.612h-9.007l9.051-16.612zM143.6 156.099c-1.366 5.203-6.693 9.234-12.06 9.234l-59.456-.004c-4.1 0-7.53-2.268-9.385-5.488-7.946-2.62-14.484-6.757-18.787-12.384-14.277-18.66 1.389-46.548 34.983-62.274l.188-.086 1.342-5.105c1.389-5.286 6.495-9.324 11.984-9.324h35.127c3.853 0 7.179 2.054 9.106 5.038 12.528 1.94 22.924 6.914 28.948 14.789 11.698 15.284 3.296 36.758-18.583 52.67l-3.406 12.934z"/><path fill="#FFF" d="M137.904 154.6c-.698 2.654-3.657 4.83-6.363 4.83-4.417-.003-59.457-.025-59.457-.005-3.343 0-5.658-3.116-4.805-6.369l18.847-71.564c.718-2.738 3.435-4.92 6.282-4.92h35.13c3.334 0 5.685 3.114 4.805 6.367l-14.848 56.448 17.807-.002c3.37-.053 5.816 2.991 4.954 6.27l-2.352 8.945z"/><path fill="#FDE52E" d="m135.152 153.886 2.35-8.953c.389-1.486-.583-2.73-2.164-2.707l-21.537.004 15.789-60.015c.424-1.528-.516-2.79-2.052-2.79H92.41c-1.537 0-3.13 1.253-3.532 2.79L70.033 153.78c-.404 1.54.519 2.794 2.052 2.794 19.82.011 39.639.003 59.457.003 1.589 0 3.015-1.27 3.61-2.69"/></svg>